<svg id="Layer_1" data-name="Layer 1" xmlns="http://www.w3.org/2000/svg" viewBox="0 0 954.05 307.99"><defs><style>.cls-1{fill:#b7273f;}.cls-2{fill:#f73c5c;}.cls-3{fill:#e82943;}.cls-4{fill:#c60e2d;}.cls-5{fill:#a50e2e;}.cls-6{fill:#f4f4f4;}.cls-7{fill:#cbcbcb;}</style></defs><title>FapDevs-Logo</title><polygon class="cls-1" points="151.72 120.47 0 168.64 0 232.61 148 307.99 296 230.75 296 166.76 151.72 120.47"/><polygon class="cls-2" points="151.7 120.47 0 168.64 147.99 230.28 295.97 166.76 151.7 120.47"/><polygon class="cls-3" points="148.14 230.28 148.01 307.99 296 230.75 296 166.76 148.14 230.28"/><polygon class="cls-4" points="187.86 148.34 101.47 185.25 111.93 189.41 191.58 154.52 187.86 148.34"/><polygon class="cls-5" points="187.84 153.19 107.17 187.52 117.59 191.84 197.48 156.71 187.84 153.19"/><polygon class="cls-4" points="197.03 156.91 202.32 154.57 187.86 148.34 188.08 153.19 197.03 156.91"/><path class="cls-6" d="M124.43,202.49S20.66,106.81,112.87,11.13c0,0,3.61,46.19,12.3,54.53S139.32,77,150.36,78.83c0,0-3.44,9.3.84,9.11,5.53-.24,12.24,3.09,17.2.74,3.48-1.65,5.48-8.83,8.18-10.41,4.93-2.88,12.05-.22,13.54,3.75s7.1-2.35,7.1-2.35,24.09,19.71,21.39,22.68S239,104,249.92,132.28c0,0-67.24,11.22-59.31,41Z" transform="translate(-6.19 -11.13)"/><path class="cls-7" d="M144,193.83c-59-43.89-40.91-107.1-40.91-107.1-24.42,29.37-11.37,86.45,24.26,114.46Z" transform="translate(-6.19 -11.13)"/><path class="cls-7" d="M212.06,122.8s-40.9,15.74-35.43,56.63l11.95-5.28C183.8,153.91,212.06,122.8,212.06,122.8Z" transform="translate(-6.19 -11.13)"/><path class="cls-7" d="M147.14,192.45c-15.28-21.94-27.55-50.69-7.59-78.21,0,0-12.15,41.64,19.34,73Z" transform="translate(-6.19 -11.13)"/><path class="cls-7" d="M163,185.46c-17.7-34.35-1.84-53.49,11.29-66.76,0,0-18.1,36.63-.74,62.09Z" transform="translate(-6.19 -11.13)"/><path class="cls-2" d="M364.91,127.87c0,0.11,0,.49-0.08,1.15a4.42,4.42,0,0,1-.89,2.14,6.89,6.89,0,0,1-2.64,2.06,12.38,12.38,0,0,1-5.33.9,40.14,40.14,0,0,1-7.36-.52,10,10,0,0,1-3.9-1.45,3.73,3.73,0,0,1-1.55-2.09,9.94,9.94,0,0,1-.28-2.37q0-12.3,6.15-21.08a45.61,45.61,0,0,1,17.27-14.4A94,94,0,0,1,392.94,84a205.61,205.61,0,0,1,34.33-2.64q12.47,0,26.24,1.21L482,85q4.2,1.15,5.8,3.29a7.43,7.43,0,0,1,1.6,4.52,13,13,0,0,1-.45,3.29,11.89,11.89,0,0,1-1.36,3.21,7.35,7.35,0,0,1-2.43,2.43,6.32,6.32,0,0,1-3.4.95l-0.56,0-0.79-.06-11.77-.91-13.18-1q-6.86-.53-14.2-0.74t-14.89-.21q-2.24,0-5.35.2t-6,.47q-3.32.27-6.89,0.67a9.73,9.73,0,0,1-.17,1.68q-0.17.94-.45,3t-0.92,5.44q-0.64,3.39-1.12,8.17t-1.47,12q-1,7.25-1.8,18.18h45.48a5.35,5.35,0,0,1,3,.74,4.37,4.37,0,0,1,1.56,1.86,7.06,7.06,0,0,1,.58,2.4q0.08,1.28.08,2.44,0,3.72-1.73,5.57a4.91,4.91,0,0,1-3.54,1.86q-0.58,0-3.78.12l-7.81.27-10.12.35-10.65.36-9.26.29q-4.12.12-5.88,0.12l-3.58,19.13A115.29,115.29,0,0,1,392,202.34a84.14,84.14,0,0,1-6.7,14.6A45.47,45.47,0,0,1,376,228.21a39.21,39.21,0,0,1-12.34,7.28,46.05,46.05,0,0,1-16,2.59q-1.87,0-4.51-.25a53.82,53.82,0,0,1-5.51-.82,47.82,47.82,0,0,1-5.72-1.52,23.31,23.31,0,0,1-5.06-2.34,13.43,13.43,0,0,1-3.62-3.25,6.83,6.83,0,0,1-1.4-4.24,13.31,13.31,0,0,1,.53-3.25A15.62,15.62,0,0,1,324,218.5a12.41,12.41,0,0,1,2.8-3.29,6.17,6.17,0,0,1,4.07-1.4,19.84,19.84,0,0,1,5.72.91q3,0.91,6.21,2t6.54,2a25.66,25.66,0,0,0,6.75.9,8.19,8.19,0,0,0,5.32-2.18,23.68,23.68,0,0,0,4.86-6,65,65,0,0,0,4.37-9q2.08-5.14,3.91-11.1T377.9,179l3-13-10.23,0a24.24,24.24,0,0,1-3.5-.31,18.68,18.68,0,0,1-4-1,9.92,9.92,0,0,1-3.24-2,4.08,4.08,0,0,1-1.33-3.11,4.51,4.51,0,0,1,.74-2.48,4.34,4.34,0,0,1,2.48-1.7l8.11-1.63q3.48-.7,6.17-1.2l4.76-.89q2.07-.39,3.81-0.62,2-9.7,3.15-16.25t2-11.81q0.83-5.25,1.57-9.9t1.72-10A62.12,62.12,0,0,0,380.52,108a41.77,41.77,0,0,0-8.8,6.17,22.88,22.88,0,0,0-5.15,6.83A16.17,16.17,0,0,0,364.91,127.87Z" transform="translate(-6.19 -11.13)"/><path class="cls-2" d="M523.48,207.17a77.88,77.88,0,0,1-5.06,6.24,62.16,62.16,0,0,1-7.12,6.82,44.43,44.43,0,0,1-8.47,5.49,20.2,20.2,0,0,1-9,2.25,12.72,12.72,0,0,1-9.11-3.46,28.14,28.14,0,0,1-6.3-10.05,40,40,0,0,1-4.89,4.64,43.65,43.65,0,0,1-6.34,4.27A40.88,40.88,0,0,1,460,226.5a23.83,23.83,0,0,1-7.46,1.22,19.19,19.19,0,0,1-7.69-1.62,20,20,0,0,1-6.62-4.65,22.72,22.72,0,0,1-4.61-7.39,26.5,26.5,0,0,1-1.73-9.83,48.52,48.52,0,0,1,1.74-12.62,80.76,80.76,0,0,1,5.38-14,76.1,76.1,0,0,1,7.82-13,57.51,57.51,0,0,1,9.14-9.59,44.6,44.6,0,0,1,10.47-6.52A27.61,27.61,0,0,1,477.62,146a5.15,5.15,0,0,1,3,.75,7.45,7.45,0,0,1,1.78,1.7l1.37,1.87a3.87,3.87,0,0,0,1.66,1.33,7.51,7.51,0,0,0,2,.54,17.45,17.45,0,0,0,2.11.13q0.91,0,1.86,0t1.86,0a10.25,10.25,0,0,1,2.32.25,3.87,3.87,0,0,1,1.9,1.08,5.51,5.51,0,0,1,1.28,2.33,14.63,14.63,0,0,1,.45,4.07,52,52,0,0,1-.82,8.72q-0.82,4.79-1.88,9.82L494.08,190a54.14,54.14,0,0,0-1.36,10.85,19.62,19.62,0,0,0,.7,5.89,2.87,2.87,0,0,0,3,2.13A8.77,8.77,0,0,0,500,208a22.57,22.57,0,0,0,3.83-2.24,43.56,43.56,0,0,0,3.87-3.14q1.93-1.75,3.66-3.63a125.45,125.45,0,0,0,8.14-9.95Zm-70.56-6.44a28.71,28.71,0,0,0,.29,4.12,12.51,12.51,0,0,0,1,3.56,7,7,0,0,0,2,2.54,4.9,4.9,0,0,0,3.13,1,7.41,7.41,0,0,0,5.52-2.65,25.8,25.8,0,0,0,4.29-6.38,45.85,45.85,0,0,0,2.93-7.7,47.22,47.22,0,0,0,1.44-6.62l6.13-26.74a14.08,14.08,0,0,0-6.58,1.67,24.57,24.57,0,0,0-6,4.53,40.58,40.58,0,0,0-5.22,6.52,60,60,0,0,0-4.69,9.05,57.91,57.91,0,0,0-3.25,9.46A34,34,0,0,0,452.92,200.73Z" transform="translate(-6.19 -11.13)"/><path class="cls-2" d="M551.34,211.76a66.45,66.45,0,0,0,15.09-1.59,58.48,58.48,0,0,0,12.37-4.3,52.51,52.51,0,0,0,10-6.33,65,65,0,0,0,8.1-7.76l0.9,18.24a44.53,44.53,0,0,1-6.37,6.62,47.18,47.18,0,0,1-8.18,5.61,47.94,47.94,0,0,1-9.33,3.86,34,34,0,0,1-9.67,1.45,7.34,7.34,0,0,1-1.43-.18l-3-.62q-2.13-.44-6.11-1.2T543,223.74v1.49a132.75,132.75,0,0,1-2.58,27.3,87.52,87.52,0,0,1-6.91,20.94q-4.32,8.67-9.91,13.38T512,291.54a12.77,12.77,0,0,1-7.81-2.32,16.19,16.19,0,0,1-5-6.25,33,33,0,0,1-2.63-9.19,75.72,75.72,0,0,1-.78-11.14,32.31,32.31,0,0,1,1.07-7.71,77.57,77.57,0,0,1,2.88-9q1.81-4.71,4.07-9.58t4.65-9.46q5.59-10.66,12.75-22,0.92-6.21,1.87-12.74t2.43-12.82A74.06,74.06,0,0,1,530,166.17a46.94,46.94,0,0,1,6.58-11.06,24.79,24.79,0,0,1,20.2-9.06,31.14,31.14,0,0,1,9.36,1.37,19.73,19.73,0,0,1,7.64,4.43,21.1,21.1,0,0,1,5.18,7.91,32.82,32.82,0,0,1,1.89,11.88q0,7.49-1.64,11.71a38.47,38.47,0,0,1-6.36,10.91,55.81,55.81,0,0,1-9.28,8.64,62.7,62.7,0,0,1-12.77,7.21Zm-39.86,51.87a12.53,12.53,0,0,0,.29,2.13,13.58,13.58,0,0,0,.95,2.95,9.43,9.43,0,0,0,1.73,2.62,3.46,3.46,0,0,0,2.63,1.15,2.65,2.65,0,0,0,2.3-1.51,14.06,14.06,0,0,0,1.48-4,40,40,0,0,0,.82-5.73q0.25-3.19.39-6.54t0.19-6.54q0-3.19.22-5.73,0.26-4.42.39-7.49l0.22-5.11q0.08-2.3.16-4a54.09,54.09,0,0,0-3,6.28q-1.48,3.57-2.8,7.43T515,247.21q-1.07,3.86-1.85,7.18t-1.23,5.75A21.55,21.55,0,0,0,511.48,263.63Zm29.43-59.91a43.56,43.56,0,0,0,8.56-5.33,44.23,44.23,0,0,0,6.09-6.29q1.07-.16,5.1-7.33a56.49,56.49,0,0,0,3.46-9.4,23.46,23.46,0,0,0,.54-4.1,13.08,13.08,0,0,0-.49-4.42,8.06,8.06,0,0,0-2.13-3.54,5.81,5.81,0,0,0-4.22-1.47,9,9,0,0,0-5.35,1.63,14.51,14.51,0,0,0-4,4.42,27.61,27.61,0,0,0-2.8,6.61q-1.11,3.82-2.63,9.44a52.55,52.55,0,0,0-1.82,10.35Q540.91,199,540.91,203.72Z" transform="translate(-6.19 -11.13)"/><path class="cls-2" d="M667,84.76A116.5,116.5,0,0,1,690.88,87a76.46,76.46,0,0,1,18.36,6.15,50.56,50.56,0,0,1,13.33,9.38,49.15,49.15,0,0,1,8.83,11.88A52.54,52.54,0,0,1,736.31,128a70.89,70.89,0,0,1,1.53,14.75,120.81,120.81,0,0,1-2.31,22.51,102.81,102.81,0,0,1-6.68,22.1,98.66,98.66,0,0,1-10.77,18.71,78,78,0,0,1-14.64,15.25,68,68,0,0,1-18.15,10.26,59.83,59.83,0,0,1-21.37,3.75,53.77,53.77,0,0,1-7.82-.59,68.4,68.4,0,0,1-7.74-1.6q-3.75-1-7.09-2.27a50.4,50.4,0,0,1-5.86-2.6,5.56,5.56,0,0,1-1.67-.8,3.22,3.22,0,0,1-.94-1.09,4.16,4.16,0,0,1-.41-1.55q-0.08-.92-0.08-2.35,0-13.64.69-27.94t2.8-29.38a142.55,142.55,0,0,1,6.11-26.63,91.23,91.23,0,0,1,10.59-21.33q1.63-2.38,10.5-2.38,7,0,10,5.09a51.6,51.6,0,0,0-6.34,11.33,119.1,119.1,0,0,0-4.28,12.28,113.49,113.49,0,0,0-2.88,13.18q-2.23,13.8-2.14,14,0.25,0.17-1.89,15.77-0.83,5.42-1.28,9.45T653.57,203q-0.21,3-.21,5.91,0,3,.21,5.09a7.48,7.48,0,0,0,1,3.29,4.32,4.32,0,0,0,2.39,1.77,14.12,14.12,0,0,0,4.32.53,38.61,38.61,0,0,0,15.65-3.24,53.06,53.06,0,0,0,13.67-8.71,67.83,67.83,0,0,0,11.24-12.69,75.13,75.13,0,0,0,8.48-16.71,144,144,0,0,0,5.4-17.82,72.5,72.5,0,0,0,1.89-16.06,44,44,0,0,0-3.13-17,35.84,35.84,0,0,0-8.77-12.73,38.17,38.17,0,0,0-13.55-8,52.58,52.58,0,0,0-17.38-2.75,113.42,113.42,0,0,0-13.71.83,75.93,75.93,0,0,0-12.58,2.56,43.33,43.33,0,0,0-10.2,4.42,19,19,0,0,0-6.62,6.41q-6,9.34-9.87,14.42t-6.5,5.08q-3.62,0-3.62-8.31a46.48,46.48,0,0,1,2.1-14.48,38.9,38.9,0,0,1,5.84-11.39,37.27,37.27,0,0,1,8.88-8.47,51.91,51.91,0,0,1,11.27-5.76,67.33,67.33,0,0,1,13-3.33A92.48,92.48,0,0,1,667,84.76Z" transform="translate(-6.19 -11.13)"/><path class="cls-2" d="M775.47,227.55A30,30,0,0,1,762,224.71a27.89,27.89,0,0,1-9.6-7.66,33.07,33.07,0,0,1-5.76-11.13,45.44,45.44,0,0,1-1.92-13.27,42.07,42.07,0,0,1,1.72-10.84q1.72-6.29,3.56-11.16a51.79,51.79,0,0,1,4.62-9.29,37,37,0,0,1,6.5-7.79,30.07,30.07,0,0,1,8.34-5.36,25.71,25.71,0,0,1,10.27-2,24.26,24.26,0,0,1,8.56,1.48,21,21,0,0,1,6.88,4.15,18.78,18.78,0,0,1,4.57,6.45,21,21,0,0,1,1.65,8.46q0,5-3.34,11.18a44.79,44.79,0,0,1-7.79,10.62,49.09,49.09,0,0,1-10.59,7.88,57.43,57.43,0,0,1-13.31,5.39,25.59,25.59,0,0,0,2.44,3.62,11,11,0,0,0,2.44,2.25,8.25,8.25,0,0,0,2.6,1.13,12.77,12.77,0,0,0,2.93.32,31.25,31.25,0,0,0,10.41-1.93,68.6,68.6,0,0,0,10.65-4.83,90.54,90.54,0,0,0,9.79-6.31,83.56,83.56,0,0,0,7.81-6.47l10.61,10.78A109.43,109.43,0,0,1,810.67,214q-3.54,2.54-7.61,5a68.1,68.1,0,0,1-8.55,4.36,58.12,58.12,0,0,1-9.29,3A42,42,0,0,1,775.47,227.55Zm-11-39.17a16.71,16.71,0,0,0,6.48-1.49,29.31,29.31,0,0,0,6.52-3.82,31.13,31.13,0,0,0,5.9-6.27q2.89-3.94,2.89-6.51a11.69,11.69,0,0,0-1.36-6q-1.36-2.33-3.34-2.33a12.66,12.66,0,0,0-10.28,4.63,17.17,17.17,0,0,0-2.72,4.66q-1,2.61-2.39,6.47a25,25,0,0,0-1.53,6.35Q764.48,186.61,764.49,188.38Z" transform="translate(-6.19 -11.13)"/><path class="cls-2" d="M809.91,200.9q-0.26-6.17-.51-10.73t-0.45-8.27q-0.21-3.7-.29-6.83t-0.08-6.42A102.39,102.39,0,0,1,809.4,153q0.83-4.73,3.63-5.14l10.48-1.56,0.79-.16h0.87a3.73,3.73,0,0,1,3.25,1.65,6.81,6.81,0,0,1,1.21,3.78l-1.56,54.53,0.56-.08,22.45-54.86a5.54,5.54,0,0,1,1.07-2.22,7.47,7.47,0,0,1,2.14-1.85,13.43,13.43,0,0,1,2.92-1.28,11.54,11.54,0,0,1,3.41-.49,13.52,13.52,0,0,1,7.65,1.93,5.8,5.8,0,0,1,2.88,5,14.22,14.22,0,0,1-.66,4.36,23,23,0,0,1-1.64,4.52q-2.14,4.2-2.63,5.35-3.7,8.88-4.2,10.28t-1,3a26.15,26.15,0,0,0-.7,3.17,22.6,22.6,0,0,0-.29,3.66,15.24,15.24,0,0,0,.49,3.87,8.94,8.94,0,0,0,1.73,3.41,8.48,8.48,0,0,0,3.37,2.43,14.25,14.25,0,0,0,5.51.91,16,16,0,0,0,5.72-1.28A46.62,46.62,0,0,0,883,193q3.37-1.89,6.91-4.28v19.33a55.28,55.28,0,0,1-11.23,5.51,33.09,33.09,0,0,1-11.06,2.06,21.81,21.81,0,0,1-7.94-1.36,17.88,17.88,0,0,1-5.92-3.66,17.25,17.25,0,0,1-3.78-5.18,14.83,14.83,0,0,1-1.44-6q-2.39,4.94-5.43,10.12a88.49,88.49,0,0,1-6.29,9.38,44.53,44.53,0,0,1-6.43,6.87q-3.18,2.67-5.82,2.67-5.09,0-7.9-2.43a14.58,14.58,0,0,1-4.17-6.13,31.48,31.48,0,0,1-1.75-8.06q-0.4-4.36-.66-8.31Z" transform="translate(-6.19 -11.13)"/><path class="cls-2" d="M878.42,196.51q4.61-4,7.49-6.65a60.14,60.14,0,0,0,5.76-6.19q2.88-3.53,4.56-5.78l4-5.32q2.3-3.08,5.59-7.52t8.55-11.1a29.2,29.2,0,0,1,2.38-2.91,18.32,18.32,0,0,1,2.92-2.54,15.32,15.32,0,0,1,3.54-1.83,12.53,12.53,0,0,1,4.32-.71,16.71,16.71,0,0,1,6.09.87,7.52,7.52,0,0,1,3.13,2.12,5.19,5.19,0,0,1,1.15,2.62,20.38,20.38,0,0,1,.17,2.37,8.29,8.29,0,0,1-1.56,4.41A46.34,46.34,0,0,1,933,163q-1.89,2.25-3.58,4.12a8.66,8.66,0,0,0-1.94,2.79,27,27,0,0,0,.38,4.7,34.6,34.6,0,0,0,1,4.16q0.63,2,1.3,4.32t1.29,5.28a30.06,30.06,0,0,1,.16,8.23q-0.45,5.24-.45,10.56a48.93,48.93,0,0,1,6.37-3.62l7.12-3.37q3.7-1.75,7.61-3.87a62,62,0,0,0,7.85-5.11l0.08,18.62a77,77,0,0,1-11.8,7.14,116.72,116.72,0,0,1-14.1,5.87,111.84,111.84,0,0,1-14.92,4,74.67,74.67,0,0,1-14.27,1.47,44.81,44.81,0,0,1-9-.87,24.2,24.2,0,0,1-7.36-2.71,15.31,15.31,0,0,1-5.14-4.84,15.64,15.64,0,0,1-2.39-7.24A16.3,16.3,0,0,1,879,213q-1.11.08-2.18,0.08-1.32,0-2.47-.08a4.06,4.06,0,0,1-2-.62A3.66,3.66,0,0,1,871,210.6a9.45,9.45,0,0,1-.49-3.45,7.26,7.26,0,0,1,1-3.7,14.89,14.89,0,0,1,2.3-3,24.71,24.71,0,0,1,2.63-2.33Q877.76,197.09,878.42,196.51Zm10.26,10.64a3.27,3.27,0,0,1,2.18,1.25q1.19,1.25,2.76,2.74a20.77,20.77,0,0,0,3.62,2.74,8.85,8.85,0,0,0,4.69,1.25,11.52,11.52,0,0,0,5.3-1.08,8.91,8.91,0,0,0,3.33-2.87,11.26,11.26,0,0,0,1.73-4.16,24.21,24.21,0,0,0,.49-4.95,37.33,37.33,0,0,0-.29-4.57,25.74,25.74,0,0,1,.08-5.78,14.66,14.66,0,0,0-.17-5.32q-0.53-1.87-.95-3.2Z" transform="translate(-6.19 -11.13)"/></svg>