<?xml version="1.0" encoding="utf-8"?>
<!-- Generator: Adobe Illustrator 16.0.4, SVG Export Plug-In . SVG Version: 6.00 Build 0)  -->
<!DOCTYPE svg PUBLIC "-//W3C//DTD SVG 1.1//EN" "http://www.w3.org/Graphics/SVG/1.1/DTD/svg11.dtd">
<svg version="1.1" id="Layer_1" xmlns="http://www.w3.org/2000/svg" xmlns:xlink="http://www.w3.org/1999/xlink" x="0px" y="0px"
	 width="967.089px" height="329.114px" viewBox="0 0 967.089 329.114" enable-background="new 0 0 967.089 329.114"
	 xml:space="preserve">
<g>
	<g>
		<g>
			<g>
				<polygon fill="#B7273F" points="157.907,131.599 6.189,179.771 6.189,243.737 154.189,319.12 302.189,241.876 302.189,177.887 
									"/>
				<polygon fill="#F73C5C" points="157.893,131.599 6.189,179.771 154.174,241.409 302.16,177.887 				"/>
				<polygon fill="#E82943" points="154.332,241.409 154.197,319.12 302.189,241.876 302.189,177.887 				"/>
			</g>
			<g>
				<polygon fill="#C60E2D" points="194.053,159.47 107.662,196.381 118.122,200.542 197.771,165.65 				"/>
				<polygon fill="#A50E2E" points="194.027,164.318 113.358,198.646 123.778,202.973 203.673,167.836 				"/>
				<polygon fill="#C60E2D" points="203.219,168.034 208.507,165.697 194.053,159.47 194.271,164.318 				"/>
			</g>
		</g>
		<g>
			<path fill="#F4F4F4" d="M124.429,202.493c0,0-103.772-95.682-11.561-191.364c0,0,3.612,46.192,12.305,54.533
				c8.691,8.341,14.148,11.314,25.19,13.168c0,0-3.439,9.296,0.837,9.109c5.532-0.239,12.243,3.094,17.197,0.745
				c3.484-1.653,5.483-8.834,8.18-10.412c4.926-2.881,12.052-0.217,13.54,3.749c1.487,3.967,7.096-2.354,7.096-2.354
				s24.087,19.706,21.385,22.681c-2.701,2.975,20.415,1.673,31.32,29.932c0,0-67.238,11.216-59.306,40.962L124.429,202.493z"/>
			<g>
				<path fill="#CBCBCB" d="M144.02,193.833c-59.003-43.892-40.908-107.102-40.908-107.102
					c-24.417,29.375-11.366,86.445,24.264,114.459L144.02,193.833z"/>
			</g>
			<path fill="#CBCBCB" d="M212.056,122.799c0,0-40.901,15.74-35.431,56.625l11.947-5.28
				C183.797,153.908,212.056,122.799,212.056,122.799z"/>
			<path fill="#CBCBCB" d="M147.145,192.453c-15.28-21.937-27.549-50.691-7.595-78.207c0,0-12.146,41.645,19.335,73.019
				L147.145,192.453z"/>
			<path fill="#CBCBCB" d="M162.958,185.464c-17.695-34.353-1.843-53.493,11.294-66.756c0,0-18.096,36.626-0.744,62.093
				L162.958,185.464z"/>
		</g>
	</g>
	<g>
		<text transform="matrix(1 0 0 1 311.3638 227.5527)" fill="#F73C5C" font-family="'Pacifico'" font-size="168.4504">Fap Devs</text>
	</g>
</g>
</svg>
