<?xml version="1.0" standalone="no"?>
<!DOCTYPE svg PUBLIC "-//W3C//DTD SVG 20010904//EN"
 "http://www.w3.org/TR/2001/REC-SVG-20010904/DTD/svg10.dtd">
<svg version="1.0" xmlns="http://www.w3.org/2000/svg"
 width="512.000000pt" height="512.000000pt" viewBox="0 0 512.000000 512.000000"
 preserveAspectRatio="xMidYMid meet">
<metadata>
Created by potrace 1.11, written by Peter Selinger 2001-2013
</metadata>
<g transform="translate(0.000000,512.000000) scale(0.100000,-0.100000)"
fill="#000000" stroke="none">
<path d="M1809 5083 c-102 -112 -289 -357 -289 -378 0 -5 -6 -16 -14 -24 -8
-9 -41 -68 -74 -132 -76 -150 -148 -349 -167 -459 -3 -19 -8 -42 -10 -50 -6
-19 -15 -94 -24 -192 -27 -302 46 -671 196 -997 18 -40 32 -75 31 -76 -3 -3
-304 -98 -773 -245 -137 -43 -270 -85 -295 -93 -25 -9 -105 -34 -177 -57
l-133 -42 0 -533 0 -533 283 -142 c155 -79 395 -200 532 -270 138 -70 461
-234 720 -365 259 -131 577 -291 707 -357 l237 -120 113 60 c62 33 190 99 283
147 164 84 274 141 510 265 61 32 187 97 280 145 94 48 215 111 270 140 55 29
161 84 235 122 74 39 205 107 290 151 85 44 229 119 320 166 l165 85 3 535 2
534 -122 40 c-68 23 -217 71 -333 107 -115 36 -221 70 -235 75 -14 5 -131 43
-260 84 -129 41 -329 105 -445 141 l-210 67 75 38 c110 55 311 126 473 165 77
19 149 35 159 35 24 0 23 9 -8 77 -78 172 -218 301 -405 375 -69 27 -84 37
-85 55 -1 12 -9 35 -19 50 -27 44 -246 252 -323 309 -12 9 -24 5 -55 -17 -22
-16 -46 -29 -53 -29 -8 0 -24 16 -36 35 -40 61 -156 88 -214 50 -14 -9 -37
-37 -52 -62 -72 -124 -105 -138 -262 -113 -58 10 -110 15 -116 13 -32 -12 -41
52 -18 133 5 19 0 22 -39 28 -68 10 -171 51 -235 93 -62 41 -198 171 -188 180
3 3 2 11 -3 17 -8 11 -41 110 -60 181 -25 92 -62 315 -77 455 -4 36 -8 72 -10
80 -1 8 -3 32 -3 53 -1 24 -6 37 -14 37 -8 0 -29 -17 -48 -37z"/>
</g>
</svg>
